<?xml version="1.0" encoding="UTF-8"?><svg id="_レイヤー_1" xmlns="http://www.w3.org/2000/svg" viewBox="0 0 500 500"><defs><style>.cls-1{fill:#1b1b1b;}</style></defs><path class="cls-1" d="M1-.68C.45-.68,0-.12,0,.58v274.95c0,1.31.86,2.37,1.9,2.34,23.78-.32,44.12-.96,61-1.95,7.23-.42,17-3.08,29.29-7.94,27.27-10.83,51.51-28.54,72.74-53.18,4.84-5.62,9.19-11.22,13.06-16.8,5.78-8.34,11.37-15.05,16.47-23.61,14.21-23.83,26.07-49.41,35.6-76.77,9-25.83,15.45-53.16,19.35-82,.65-4.81.76-9.82.39-15.05-.06-.72-.53-1.26-1.1-1.26H1Z"/><path class="cls-1" d="M.8,312.11c-.3,0-.55.52-.55,1.16v184.35c0,.94.36,1.7.82,1.7h69.79c.74,0,1.32-1.28,1.3-2.81-.11-7.23-.72-18.9-1.86-35.03-3.82-54.59-13.64-103.78-29.45-147.59-.41-1.11-1.03-1.78-1.69-1.78H.8Z"/><path class="cls-1" d="M499-.68c.55,0,1,.57,1,1.26v274.95c0,1.31-.86,2.37-1.9,2.34-23.78-.32-44.12-.96-61-1.95-7.23-.42-17-3.08-29.29-7.94-27.27-10.83-51.51-28.54-72.74-53.18-4.84-5.62-9.19-11.22-13.06-16.8-5.78-8.34-11.37-15.05-16.47-23.61-14.21-23.83-26.07-49.41-35.6-76.77-9-25.83-15.45-53.16-19.35-82-.65-4.81-.76-9.82-.39-15.05.06-.72.53-1.26,1.1-1.26h247.69Z"/><path class="cls-1" d="M499.2,312.11c.3,0,.55.52.55,1.16v184.35c0,.94-.36,1.7-.82,1.7h-69.79c-.74,0-1.32-1.28-1.3-2.81.11-7.23.72-18.9,1.86-35.03,3.82-54.59,13.64-103.78,29.45-147.59.41-1.11,1.03-1.78,1.69-1.78h38.35Z"/><circle cx="165.36" cy="310.43" r="18.03"/><circle cx="334.13" cy="310.43" r="18.03"/><path d="M249.75,354.33c-30.41,0-73.95,8.09-70.37,33.95,2.33,16.81,36.58,27.82,49.65,35.69,9.37,5.64,15.76,12.97,12.4,24.75-5.09,17.82-39.37,10.74-45.55,23.45-1.53,3.15-.15,7.86,3.01,9.5,6.99,3.63,40.78-5.2,50.86-5.88,10.08.68,43.86,9.51,50.86,5.88,3.17-1.64,4.54-6.35,3.01-9.5-6.18-12.7-40.46-5.63-45.55-23.45-3.36-11.77,3.03-19.1,12.4-24.75,13.07-7.87,47.32-18.88,49.65-35.69,3.58-25.86-39.96-33.95-70.37-33.95Z"/></svg>