<?xml version="1.0" encoding="UTF-8"?><svg id="_レイヤー_1" xmlns="http://www.w3.org/2000/svg" xmlns:xlink="http://www.w3.org/1999/xlink" viewBox="0 0 500 500"><defs><style>.cls-1{fill:none;}.cls-2{fill:#fff;}.cls-3{clip-path:url(#clippath);}.cls-4{fill:#1b1b1b;}</style><clipPath id="clippath"><rect class="cls-2" width="500" height="500" rx="50" ry="50"/></clipPath></defs><rect class="cls-2" width="500" height="500" rx="50" ry="50"/><g class="cls-3"><path class="cls-4" d="M1-.68C.45-.68,0-.12,0,.58v274.95c0,1.31.86,2.37,1.9,2.34,23.78-.32,44.12-.96,61-1.95,7.23-.42,17-3.08,29.29-7.94,27.27-10.83,51.51-28.54,72.74-53.18,4.84-5.62,9.19-11.22,13.06-16.8,5.78-8.34,11.37-15.05,16.47-23.61,14.21-23.83,26.07-49.41,35.6-76.77,9-25.83,15.45-53.16,19.35-82,.65-4.81.76-9.82.39-15.05-.06-.72-.53-1.26-1.1-1.26H1Z"/><path class="cls-4" d="M.8,312.11c-.3,0-.55.52-.55,1.16v184.35c0,.94.36,1.7.82,1.7h69.79c.74,0,1.32-1.28,1.3-2.81-.11-7.23-.72-18.9-1.86-35.03-3.82-54.59-13.64-103.78-29.45-147.59-.41-1.11-1.03-1.78-1.69-1.78H.8Z"/><path class="cls-4" d="M499-.68c.55,0,1,.57,1,1.26v274.95c0,1.31-.86,2.37-1.9,2.34-23.78-.32-44.12-.96-61-1.95-7.23-.42-17-3.08-29.29-7.94-27.27-10.83-51.51-28.54-72.74-53.18-4.84-5.62-9.19-11.22-13.06-16.8-5.78-8.34-11.37-15.05-16.47-23.61-14.21-23.83-26.07-49.41-35.6-76.77-9-25.83-15.45-53.16-19.35-82-.65-4.81-.76-9.82-.39-15.05.06-.72.53-1.26,1.1-1.26h247.69Z"/><path class="cls-4" d="M499.2,312.11c.3,0,.55.52.55,1.16v184.35c0,.94-.36,1.7-.82,1.7h-69.79c-.74,0-1.32-1.28-1.3-2.81.11-7.23.72-18.9,1.86-35.03,3.82-54.59,13.64-103.78,29.45-147.59.41-1.11,1.03-1.78,1.69-1.78h38.35Z"/><circle cx="165.36" cy="296.26" r="18.03"/><circle cx="334.13" cy="296.26" r="18.03"/><ellipse class="cls-4" cx="250" cy="370.68" rx="70.57" ry="35.03"/><polygon class="cls-4" points="206.7 451.93 206.7 493.22 250 481.27 293.3 493.22 293.3 451.93 206.7 451.93"/><rect class="cls-1" width="500" height="500" rx="50" ry="50"/></g></svg>