<?xml version="1.0" encoding="UTF-8"?><svg id="_レイヤー_1" xmlns="http://www.w3.org/2000/svg" xmlns:xlink="http://www.w3.org/1999/xlink" viewBox="0 0 1121.88 199.06"><defs><style>.cls-1{fill:none;}.cls-2{fill:#fff;}.cls-3{clip-path:url(#clippath);}.cls-4{fill:#1b1b1b;}</style><clipPath id="clippath"><rect class="cls-2" width="200" height="200" rx="20" ry="20"/></clipPath></defs><rect class="cls-2" width="200" height="200" rx="20" ry="20"/><g class="cls-3"><path class="cls-4" d="M.4-.27C.18-.27,0-.05,0,.23v109.98c0,.52.34.95.76.94,9.51-.13,17.65-.38,24.4-.78,2.89-.17,6.8-1.23,11.71-3.18,10.91-4.33,20.61-11.42,29.1-21.27,1.94-2.25,3.68-4.49,5.22-6.72,2.31-3.34,4.55-6.02,6.59-9.44,5.68-9.53,10.43-19.76,14.24-30.71,3.6-10.33,6.18-21.26,7.74-32.8.26-1.92.31-3.93.16-6.02-.02-.29-.21-.5-.44-.5H.4Z"/><path class="cls-4" d="M.32,124.84c-.12,0-.22.21-.22.46v73.74c0,.38.14.68.33.68h27.92c.29,0,.53-.51.52-1.12-.04-2.89-.29-7.56-.74-14.01-1.53-21.84-5.46-41.51-11.78-59.04-.16-.44-.41-.71-.68-.71H.32Z"/><path class="cls-4" d="M199.6-.27c.22,0,.4.23.4.5v109.98c0,.52-.34.95-.76.94-9.51-.13-17.65-.38-24.4-.78-2.89-.17-6.8-1.23-11.71-3.18-10.91-4.33-20.61-11.42-29.1-21.27-1.94-2.25-3.68-4.49-5.22-6.72-2.31-3.34-4.55-6.02-6.59-9.44-5.68-9.53-10.43-19.76-14.24-30.71-3.6-10.33-6.18-21.26-7.74-32.8-.26-1.92-.31-3.93-.16-6.02.02-.29.21-.5.44-.5h99.08Z"/><path class="cls-4" d="M199.68,124.84c.12,0,.22.21.22.46v73.74c0,.38-.14.68-.33.68h-27.92c-.29,0-.53-.51-.52-1.12.04-2.89.29-7.56.74-14.01,1.53-21.84,5.46-41.51,11.78-59.04.16-.44.41-.71.68-.71h15.34Z"/><circle cx="66.14" cy="118.5" r="7.21"/><circle cx="133.65" cy="118.5" r="7.21"/><ellipse class="cls-4" cx="100" cy="148.27" rx="28.23" ry="14.01"/><polygon class="cls-4" points="82.68 180.77 82.68 197.29 100 192.51 117.32 197.29 117.32 180.77 82.68 180.77"/><rect class="cls-1" width="200" height="200" rx="20" ry="20"/></g><path d="M382.35,81.24v94.23h-21.54v-65.56l-41.33,50.48h-1.08l-41.33-50.48v65.56h-20.87v-94.23h23.42l39.85,49.81,39.85-49.81h23.02Z"/><path d="M487.21,134.01v27.33c0,5.38.94,9.83,3.37,14.13h-21.4c-1.62-2.69-2.69-6.06-2.69-8.75v-.13c-5.65,6.19-16.56,11.58-30.83,11.58-15.88,0-36.48-6.33-36.48-25.58s20.6-25.44,36.48-25.44c14.27,0,25.17,5.25,30.83,11.58v-4.85c0-13.73-9.02-19.65-26.79-19.65-10.1,0-18.17,1.35-27.06,6.19l-6.19-13.73c9.69-4.98,24.23-8.21,37.42-8.21,27.06,0,43.35,12.52,43.35,35.54ZM466.88,151.65c-5.52-8.75-16.56-10.9-26.12-10.9-8.62,0-21.27,2.02-21.27,11.85s12.65,11.98,21.27,11.98c9.56,0,20.6-2.29,26.12-11.04v-1.88Z"/><path d="M546.57,142.22l-17.5,14.81v18.44h-20.87v-99.61h20.87v61.52l39.98-36.08h24.63l-32.58,29.48,34.6,44.69h-23.02l-26.12-33.25Z"/><path d="M691.95,101.3v74.17h-20.87v-13.06c-6.06,9.83-18.04,15.75-32.31,15.75-22.21,0-33.65-14.13-33.65-33.92v-42.94h20.86v41.6c0,12.12,6.46,18.71,18.85,18.71,11.04,0,20.19-5.12,26.25-15.75v-44.56h20.87Z"/><path d="M841.5,81.24v94.23h-21.54v-65.56l-41.33,50.48h-1.08l-41.33-50.48v65.56h-20.87v-94.23h23.42l39.85,49.81,39.85-49.81h23.02Z"/><path d="M946.35,134.01v27.33c0,5.38.94,9.83,3.37,14.13h-21.4c-1.62-2.69-2.69-6.06-2.69-8.75v-.13c-5.65,6.19-16.56,11.58-30.83,11.58-15.88,0-36.48-6.33-36.48-25.58s20.6-25.44,36.48-25.44c14.27,0,25.17,5.25,30.83,11.58v-4.85c0-13.73-9.02-19.65-26.79-19.65-10.1,0-18.17,1.35-27.06,6.19l-6.19-13.73c9.69-4.98,24.23-8.21,37.42-8.21,27.06,0,43.35,12.52,43.35,35.54ZM926.03,151.65c-5.52-8.75-16.56-10.9-26.12-10.9-8.62,0-21.27,2.02-21.27,11.85s12.65,11.98,21.27,11.98c9.56,0,20.6-2.29,26.12-11.04v-1.88Z"/><path d="M967.35,175.47v-74.17h20.86v15.35c6.06-11.17,18.85-16.96,33.12-16.96v17.9c-16.15,0-28.67,6.33-33.12,19.38v38.5h-20.86Z"/><path d="M1072.75,142.22l-17.5,14.81v18.44h-20.86v-99.61h20.86v61.52l39.98-36.08h24.63l-32.58,29.48,34.6,44.69h-23.02l-26.12-33.25Z"/><path d="M268.65,34.4c-4.31,0-6.13.05-8.41.26v-9.14c2.86.31,4.47.42,8.57.42l28.46-.05c1.66,0,2.49-.16,3.58-.52l4.98,5.61c-.83.78-1.09,1.14-2.39,3.32-5.35,8.98-9.61,14.12-16.46,19.89,2.23,2.65,3.69,4.52,6.18,7.89l-7.79,6.08c-3.12-5.09-5.71-8.67-10.02-13.55-4.21-4.83-6.65-7.22-10.44-10.33l7.11-4.98c4.26,3.48,5.97,5.09,8.98,8.26,2.96-2.44,6.23-5.76,8.1-8.2,1.3-1.61,2.7-3.84,3.32-5.04l-23.78.1Z"/><path d="M489.6,22.66c-.26.47-.36.62-.62,1.3-.1.16-.21.47-.36.78-.21.52-.36.88-.47,1.09q-.67,1.51-1.04,2.23l13.03-.16c2.03,0,2.6-.1,3.84-.57l4.31,4.26c-.62,1.04-.78,1.35-1.51,3.69-2.65,8.62-6.18,15.37-10.75,20.56-4.73,5.4-10.59,9.5-19.11,13.4-1.71-3.32-3.32-5.35-6.23-7.89,7.37-2.7,12.77-6.02,17.34-10.59,3.84-3.89,6.75-8.78,8.67-14.75l-13.81.16c-3.38,5.35-6.85,9.14-11.79,13.03-2.65-3.01-3.95-4.15-7.37-6.23,6.33-4.47,10.44-9.19,13.81-15.84,1.35-2.7,1.97-4.41,2.23-6.23l9.81,1.77Z"/><path d="M677.83,34.4c-4.31,0-6.13.05-8.41.26v-9.14c2.86.31,4.47.42,8.57.42l28.46-.05c1.66,0,2.49-.16,3.58-.52l4.98,5.61c-.83.78-1.09,1.14-2.39,3.32-5.35,8.98-9.61,14.12-16.46,19.89,2.23,2.65,3.69,4.52,6.18,7.89l-7.79,6.08c-3.12-5.09-5.71-8.67-10.02-13.55-4.21-4.83-6.65-7.22-10.44-10.33l7.11-4.98c4.26,3.48,5.97,5.09,8.98,8.26,2.96-2.44,6.23-5.76,8.1-8.2,1.3-1.61,2.7-3.84,3.32-5.04l-23.78.1Z"/><path d="M872.92,40c2.44.36,5.24.47,10.64.47h24.82c5.19,0,7.17-.1,10.64-.47v10.02c-2.49-.26-4.78-.31-10.7-.31h-24.72c-5.82,0-7.53.05-10.7.31v-10.02Z"/><path d="M1103.37,22.66c-.26.47-.36.62-.62,1.3-.1.16-.21.47-.36.78-.21.52-.36.88-.47,1.09q-.67,1.51-1.04,2.23l13.03-.16c2.03,0,2.6-.1,3.84-.57l4.31,4.26c-.62,1.04-.78,1.35-1.51,3.69-2.65,8.62-6.18,15.37-10.75,20.56-4.73,5.4-10.59,9.5-19.11,13.4-1.71-3.32-3.32-5.35-6.23-7.89,7.37-2.7,12.77-6.02,17.34-10.59,3.84-3.89,6.75-8.78,8.67-14.75l-13.81.16c-3.38,5.35-6.85,9.14-11.79,13.03-2.65-3.01-3.95-4.15-7.37-6.23,6.33-4.47,10.44-9.19,13.81-15.84,1.35-2.7,1.97-4.41,2.23-6.23l9.81,1.77Z"/></svg>