<?xml version="1.0" encoding="UTF-8"?><svg id="_レイヤー_2" xmlns="http://www.w3.org/2000/svg" viewBox="0 0 209.82 188.99"><defs><style>.cls-1{fill:#231815;}</style></defs><g id="_レイヤー_1-2"><path class="cls-1" d="M104.91,18c1.64,0,5.71.46,8.17,4.72l77.44,134.13c2.46,4.26.82,8.01,0,9.43s-3.25,4.72-8.17,4.72H27.47c-4.91,0-7.35-3.3-8.17-4.72-.82-1.42-2.46-5.17,0-9.43L96.74,22.72c2.46-4.26,6.53-4.72,8.17-4.72M104.91,0c-9.24,0-18.48,4.57-23.76,13.72L3.72,147.84c-10.56,18.29,2.64,41.15,23.76,41.15h154.88c21.12,0,34.31-22.86,23.76-41.15L128.67,13.72c-5.28-9.14-14.52-13.72-23.76-13.72h0Z"/><path class="cls-1" d="M104.91,62.95c29.79,0,54.02,24.23,54.02,54.02s-24.23,54.02-54.02,54.02-54.02-24.23-54.02-54.02,24.23-54.02,54.02-54.02M104.91,44.95c-39.77,0-72.02,32.24-72.02,72.02s32.24,72.02,72.02,72.02,72.02-32.24,72.02-72.02-32.24-72.02-72.02-72.02h0Z"/></g></svg>